<svg width="65px" height="86px" viewBox="0 0 65 86" version="1.1" xmlns="http://www.w3.org/2000/svg" xmlns:xlink="http://www.w3.org/1999/xlink">
    <!-- Generator: Sketch 47 (45396) - http://www.bohemiancoding.com/sketch -->
    <desc>Created with Sketch.</desc>
    <defs></defs>
    <g id="Welcome" stroke="none" stroke-width="1" fill="none" fill-rule="evenodd">
        <g id="Desktop-HD" transform="translate(-681.000000, -580.000000)" fill-rule="nonzero" fill="#FFFFFF">
            <g id="Group" transform="translate(240.000000, 569.000000)">
                <g id="lock" transform="translate(441.000000, 11.000000)">
                    <path d="M53.6276671,41.3450204 L53.6276671,21.5007755 C53.6276671,9.62897233 44.1695193,0 32.5045721,0 C20.8365768,0 11.375381,9.62587022 11.375381,21.5007755 L11.375381,41.3481225 L0,41.3481225 L0,86 L65,86 L65,41.3481225 L53.624619,41.3481225 L53.6276671,41.3450204 Z M14.6276671,21.4976734 C14.6276671,11.4654258 22.6471278,3.30685712 32.5045721,3.30685712 C42.3620164,3.30685712 50.375381,11.4685279 50.375381,21.4976734 L50.375381,41.3450204 L14.624619,41.3450204 L14.624619,21.4976734 L14.6276671,21.4976734 Z M61.750762,82.6900408 L3.25228605,82.6900408 L3.25228605,44.6518775 L61.750762,44.6518775 L61.750762,82.6900408 Z" id="Shape" style="mix-blend-mode: soft-light;"></path>
                </g>
            </g>
        </g>
    </g>
</svg>
