<svg width="71px" height="107px" viewBox="0 0 71 107" version="1.1" xmlns="http://www.w3.org/2000/svg" xmlns:xlink="http://www.w3.org/1999/xlink">
    <!-- Generator: Sketch 47 (45396) - http://www.bohemiancoding.com/sketch -->
    <desc>Created with Sketch.</desc>
    <defs></defs>
    <g id="Welcome" stroke="none" stroke-width="1" fill="none" fill-rule="evenodd">
        <g id="Desktop-HD" transform="translate(-344.000000, -569.000000)" fill-rule="nonzero" fill="#FFFFFF">
            <g id="Group" transform="translate(240.000000, 569.000000)">
                <g id="rocket" transform="translate(104.000000, 0.000000)">
                    <path d="M36,25 C30.9617548,25 27,28.9583802 27,34 C27,39.0416198 30.9583802,43 36,43 C41.0382452,43 45,39.0416198 45,34 C45,28.9583802 41.0416198,25 36,25 Z M36,39.3959505 C32.9392576,39.3959505 30.6006749,37.0573678 30.6006749,33.9966254 C30.6006749,30.935883 32.9392576,28.5973003 36,28.5973003 C39.0607424,28.5973003 41.3993251,30.935883 41.3993251,33.9966254 C41.3993251,37.0573678 39.0607424,39.3959505 36,39.3959505 Z" id="Shape" style="mix-blend-mode: soft-light;"></path>
                    <path d="M53.2475039,63.6055315 C53.2475039,50.7050275 53.2475039,36.0139068 53.2475039,30.6386968 C53.2475039,20.6038517 46.6810106,6.98777296 35.4983359,0 C24.3156612,6.98777296 17.749168,20.6038517 17.749168,30.8167507 C17.749168,36.1919606 17.749168,50.8830814 17.749168,63.7835853 L0,86 L71,86 L53.250832,63.602172 L53.2475039,63.6055315 Z M17.7458398,82.4187664 L7.45178831,82.4187664 L17.7458398,69.3402086 L17.7458398,82.4187664 Z M49.696339,82.4187664 L21.2970046,82.4187664 L21.2970046,30.8167507 C21.2970046,22.7539357 26.2659729,11.1065276 35.4983359,4.30016798 C44.7273707,11.1098871 49.6996672,22.5758819 49.6996672,30.8167507 L49.6996672,82.4187664 L49.696339,82.4187664 Z M53.2475039,69.3402086 L63.5415553,82.4187664 L53.2475039,82.4187664 C53.2475039,79.3716942 53.2475039,74.7154186 53.2475039,69.3402086 Z" id="Shape" style="mix-blend-mode: soft-light;"></path>
                    <polygon id="Shape" style="mix-blend-mode: soft-light;" points="34 89 38 89 38 107 34 107"></polygon>
                    <polygon id="Shape" style="mix-blend-mode: soft-light;" points="43 89 47 89 47 100 43 100"></polygon>
                    <polygon id="Shape" style="mix-blend-mode: soft-light;" points="25 89 29 89 29 100 25 100 25 89"></polygon>
                </g>
            </g>
        </g>
    </g>
</svg>
