<svg width="106px" height="107px" viewBox="0 0 106 107" version="1.1" xmlns="http://www.w3.org/2000/svg" xmlns:xlink="http://www.w3.org/1999/xlink">
    <!-- Generator: Sketch 47 (45396) - http://www.bohemiancoding.com/sketch -->
    <desc>Created with Sketch.</desc>
    <defs></defs>
    <g id="Welcome" stroke="none" stroke-width="1" fill="none" fill-rule="evenodd">
        <g id="Desktop-HD" transform="translate(-993.000000, -570.000000)" fill-rule="nonzero" fill="#FFFFFF">
            <g id="Group" transform="translate(240.000000, 569.000000)">
                <g id="wine" transform="translate(753.000000, 1.000000)">
                    <path d="M58.6199504,0 L58.6199504,0 L37.8944171,20.8831422 C25.2629447,33.6106716 24.866939,53.8971526 36.5139485,67.2250723 L19.7373695,84.1292301 L2.96079048,67.2250723 L0,70.4060224 L36.3177962,107 L39.0824343,104.214338 L22.3058552,87.3101802 L39.0824343,70.4060224 C52.3060647,82.1416025 72.43944,81.7425853 85.0746133,69.0150559 L96.1294648,57.876137 L96.5254705,57.876137 L96.5254705,57.4771199 L106,47.9305405 L58.6273524,8.28033762e-15 L58.6199504,0 Z M82.3062742,66.2293939 C70.859118,77.7636009 51.910059,77.7636009 40.4592018,66.2293939 C37.8944171,63.6451051 36.1179428,60.8594431 34.5376209,57.876137 L90.5964876,57.876137 L82.3062742,66.2293939 L82.3062742,66.2293939 Z M94.5454418,53.6995086 L33.1571523,53.6995086 C30.0002095,43.5562681 32.5649942,32.0220611 40.4592018,23.8664483 L58.6199504,5.76896804 L100.467023,47.9342697 L94.5454418,53.7032377 L94.5454418,53.6995086 Z" id="Shape" style="mix-blend-mode: soft-light;"></path>
                </g>
            </g>
        </g>
    </g>
</svg>
